<svg xmlns="http://www.w3.org/2000/svg" xmlns:xlink="http://www.w3.org/1999/xlink" version="1.1" x="0px" y="0px" viewBox="0 0 100 100" enable-background="new 0 0 100 100" xml:space="preserve"><g><path d="M81.8,81.8c17.5-17.5,17.5-46.1,0-63.6C73.3,9.7,62,5,50,5S26.7,9.7,18.2,18.2c-17.5,17.5-17.5,46.1,0,63.6   C26.7,90.3,38,95,50,95S73.3,90.3,81.8,81.8z M25.3,25.3C31.9,18.6,40.7,15,50,15s18.1,3.6,24.7,10.3c13.6,13.6,13.6,35.9,0,49.5   C68.1,81.4,59.3,85,50,85s-18.1-3.6-24.7-10.3C11.6,61.1,11.6,38.9,25.3,25.3z"/><rect x="25" y="45" transform="matrix(0.7071 -0.7071 0.7071 0.7071 -20.7107 50)" width="50" height="10"/><rect x="59.1" y="59.1" width="10" height="10"/><rect x="30.9" y="30.9" width="10" height="10"/></g></svg>